<svg width="163" height="40" viewBox="0 0 163 40" fill="none" xmlns="http://www.w3.org/2000/svg">
    <path d="M36.4943 3.88036L27.3764 10.7414L18.2661 3.87256L0 17.6337V38.7242H10.601V34.0955H4.49464V19.9987L18.2737 9.61741L23.5779 13.6138L18.2283 17.6415V38.732H25.4318H30.9933H36.5397V17.6415L31.1901 13.6138L36.4943 9.61741L50.2734 19.9987V34.1033H43.66V38.732H54.768V17.6415L36.4943 3.88036ZM32.0451 19.9987V34.1033H30.9933H25.4318H22.7153V19.9987L27.3764 16.4863L32.0451 19.9987Z" fill="#053AD9"/>
    <g clip-path="url(#clip0_1882_35270)">
        <path d="M36.4943 3.9195L27.3764 10.8492L18.2661 3.91162L0 17.8103V39.1117H10.601V34.4368H4.49464V20.1991L18.2737 9.71393L23.5779 13.7503L18.2283 17.8182V39.1196H25.4318H30.9933H36.5397V17.8182L31.1901 13.7503L36.4943 9.71393L50.2734 20.1991V34.4447H43.66V39.1196H54.768V17.8182L36.4943 3.9195ZM32.0451 20.1991V34.4447H30.9933H25.4318H22.7153V20.1991L27.3764 16.6515L32.0451 20.1991Z" fill="#053AD9"/>
    </g>
    <path d="M77.0915 19.8678H80.8991V32.1183C80.8991 33.5445 80.5934 34.7458 79.9822 35.7221C79.3794 36.6984 78.5432 37.4327 77.4735 37.9251C76.4123 38.4175 75.1898 38.6637 73.806 38.6637C72.4222 38.6637 71.1912 38.4175 70.113 37.9251C69.0434 37.4327 68.2029 36.6984 67.5916 35.7221C66.9889 34.7458 66.6875 33.5445 66.6875 32.1183V19.8678H70.5078V32.1183C70.5078 32.9502 70.6394 33.6294 70.9026 34.1558C71.1658 34.6821 71.5435 35.0684 72.0359 35.3146C72.5368 35.5608 73.1268 35.6839 73.806 35.6839C74.5022 35.6839 75.0922 35.5608 75.5761 35.3146C76.0685 35.0684 76.442 34.6821 76.6967 34.1558C76.9599 33.6294 77.0915 32.9502 77.0915 32.1183V19.8678Z" fill="#373C45"/>
    <path d="M87.4063 27.5721V38.409H83.7388V24.6304H87.1771L87.4063 27.5721ZM86.8715 31.0358H85.8782C85.8782 30.0171 86.0098 29.1002 86.273 28.2852C86.5361 27.4617 86.9054 26.7613 87.3809 26.184C87.8563 25.5983 88.4208 25.1526 89.0745 24.8469C89.7367 24.5328 90.4753 24.3758 91.2903 24.3758C91.9355 24.3758 92.5255 24.4691 93.0604 24.6559C93.5952 24.8427 94.0537 25.1398 94.4357 25.5473C94.8262 25.9548 95.1234 26.4939 95.3271 27.1646C95.5393 27.8353 95.6455 28.6545 95.6455 29.6223V38.409H91.9525V29.6096C91.9525 28.9983 91.8676 28.5229 91.6978 28.1833C91.528 27.8438 91.2776 27.606 90.9465 27.4702C90.6239 27.3259 90.2249 27.2537 89.7495 27.2537C89.2571 27.2537 88.8283 27.3514 88.4633 27.5466C88.1067 27.7419 87.8096 28.0135 87.5719 28.3616C87.3427 28.7012 87.1686 29.1002 87.0498 29.5587C86.9309 30.0171 86.8715 30.5095 86.8715 31.0358Z" fill="#373C45"/>
    <path d="M102.306 24.6304V38.409H98.6253V24.6304H102.306ZM98.3961 21.0394C98.3961 20.5045 98.5829 20.0631 98.9564 19.715C99.3299 19.3669 99.8308 19.1929 100.459 19.1929C101.079 19.1929 101.575 19.3669 101.949 19.715C102.331 20.0631 102.522 20.5045 102.522 21.0394C102.522 21.5742 102.331 22.0157 101.949 22.3637C101.575 22.7118 101.079 22.8858 100.459 22.8858C99.8308 22.8858 99.3299 22.7118 98.9564 22.3637C98.5829 22.0157 98.3961 21.5742 98.3961 21.0394Z" fill="#373C45"/>
    <path d="M107.31 19.8678H110.545L115.307 33.4808L120.07 19.8678H123.305L116.606 38.409H114.008L107.31 19.8678ZM105.566 19.8678H108.787L109.373 33.137V38.409H105.566V19.8678ZM121.827 19.8678H125.062V38.409H121.242V33.137L121.827 19.8678Z" fill="#373C45"/>
    <path d="M135.619 35.3019V29.1639C135.619 28.7224 135.547 28.3446 135.402 28.0305C135.258 27.7079 135.033 27.4575 134.727 27.2792C134.43 27.1009 134.044 27.0118 133.568 27.0118C133.161 27.0118 132.809 27.0839 132.511 27.2283C132.214 27.3641 131.985 27.5636 131.824 27.8268C131.663 28.0815 131.582 28.3828 131.582 28.7309H127.914C127.914 28.1451 128.05 27.5891 128.322 27.0627C128.594 26.5364 128.988 26.0737 129.506 25.6747C130.024 25.2672 130.64 24.9488 131.353 24.7196C132.074 24.4904 132.881 24.3758 133.772 24.3758C134.842 24.3758 135.793 24.554 136.625 24.9106C137.457 25.2672 138.11 25.802 138.586 26.5151C139.07 27.2283 139.312 28.1197 139.312 29.1894V35.0854C139.312 35.8409 139.358 36.4607 139.452 36.9446C139.545 37.42 139.681 37.836 139.859 38.1926V38.409H136.154C135.975 38.0355 135.839 37.5686 135.746 37.0083C135.661 36.4395 135.619 35.8707 135.619 35.3019ZM136.103 30.0171L136.128 32.0928H134.078C133.594 32.0928 133.174 32.148 132.817 32.2583C132.461 32.3687 132.168 32.5258 131.938 32.7295C131.709 32.9248 131.539 33.154 131.429 33.4172C131.327 33.6803 131.276 33.969 131.276 34.2831C131.276 34.5972 131.348 34.8816 131.493 35.1363C131.637 35.3825 131.845 35.5778 132.117 35.7221C132.388 35.8579 132.707 35.9258 133.072 35.9258C133.624 35.9258 134.103 35.8155 134.511 35.5947C134.918 35.374 135.232 35.1023 135.453 34.7797C135.682 34.4571 135.801 34.1515 135.81 33.8629L136.777 35.4165C136.642 35.7645 136.455 36.1253 136.217 36.4989C135.988 36.8724 135.695 37.2247 135.339 37.5558C134.982 37.8784 134.553 38.1459 134.052 38.3581C133.551 38.5619 132.957 38.6637 132.27 38.6637C131.395 38.6637 130.601 38.4897 129.888 38.1416C129.184 37.7851 128.623 37.2969 128.207 36.6772C127.8 36.0489 127.596 35.3358 127.596 34.5378C127.596 33.8162 127.732 33.1752 128.004 32.6149C128.275 32.0546 128.674 31.5834 129.201 31.2014C129.735 30.8109 130.402 30.518 131.2 30.3227C131.998 30.119 132.923 30.0171 133.976 30.0171H136.103Z" fill="#373C45"/>
    <path d="M148.888 24.6304V27.2283H140.865V24.6304H148.888ZM142.852 21.2304H146.519V34.2576C146.519 34.6566 146.57 34.9623 146.672 35.1745C146.782 35.3867 146.944 35.5353 147.156 35.6202C147.368 35.6966 147.636 35.7348 147.958 35.7348C148.187 35.7348 148.391 35.7263 148.57 35.7094C148.756 35.6839 148.913 35.6584 149.041 35.6329L149.053 38.3326C148.739 38.4345 148.4 38.5152 148.035 38.5746C147.67 38.634 147.266 38.6637 146.825 38.6637C146.018 38.6637 145.314 38.5321 144.711 38.269C144.117 37.9973 143.658 37.5643 143.336 36.9701C143.013 36.3758 142.852 35.5947 142.852 34.6269V21.2304Z" fill="#373C45"/>
    <path d="M157.318 38.6637C156.248 38.6637 155.289 38.4939 154.44 38.1544C153.591 37.8063 152.869 37.3266 152.275 36.7154C151.689 36.1041 151.24 35.3952 150.925 34.5887C150.611 33.7737 150.454 32.9078 150.454 31.9909V31.4815C150.454 30.4373 150.603 29.4822 150.9 28.6163C151.197 27.7504 151.622 26.999 152.173 26.3623C152.734 25.7256 153.413 25.2375 154.211 24.8979C155.009 24.5498 155.909 24.3758 156.911 24.3758C157.887 24.3758 158.753 24.5371 159.508 24.8597C160.264 25.1823 160.896 25.6407 161.406 26.235C161.924 26.8293 162.314 27.5424 162.577 28.3744C162.841 29.1978 162.972 30.1147 162.972 31.125V32.6531H152.021V30.2081H159.368V29.9279C159.368 29.4186 159.275 28.9644 159.088 28.5654C158.91 28.1579 158.638 27.8353 158.273 27.5976C157.908 27.3598 157.441 27.241 156.872 27.241C156.388 27.241 155.972 27.3471 155.624 27.5594C155.276 27.7716 154.992 28.0687 154.771 28.4508C154.559 28.8328 154.398 29.2827 154.287 29.8006C154.185 30.31 154.134 30.8703 154.134 31.4815V31.9909C154.134 32.5427 154.211 33.0521 154.364 33.519C154.525 33.986 154.75 34.3892 155.039 34.7288C155.336 35.0684 155.692 35.3316 156.108 35.5183C156.533 35.7051 157.012 35.7985 157.547 35.7985C158.209 35.7985 158.825 35.6712 159.394 35.4165C159.971 35.1533 160.468 34.7585 160.884 34.2322L162.666 36.1678C162.378 36.5838 161.983 36.9828 161.482 37.3648C160.99 37.7469 160.396 38.061 159.699 38.3072C159.003 38.5449 158.209 38.6637 157.318 38.6637Z" fill="#373C45"/>
    <defs>
        <clipPath id="clip0_1882_35270">
            <rect width="27.384" height="39.12" fill="white" transform="translate(27.3828)"/>
        </clipPath>
    </defs>
</svg>
